#!OML:ASF F:\VICON\USERDATA\INSTALL\rory3\rory3.ASF
:FULLY-SPECIFIED
:DEGREES
1147
root 0.570824 16.0295 -2.69231 0.598019 -39.0699 9.12586
lowerback 27.4604 0.0290958 -8.06764
upperback 17.8655 -2.58553 -8.57698
thorax 5.08978 -1.77039 -4.44522
lowerneck 7.0468 -8.16589 -8.97524
upperneck 9.68323 -11.2287 0.440654
head 2.49231 -5.81632 1.60102
rclavicle 3.33958e-014 4.37326e-014
rhumerus 67.0395 -22.5992 -6.62282
rradius 60.448
rwrist -56.1682
rhand -27.7498 -0.729404
rfingers 7.12502
rthumb -1.14429 -30.7061
lclavicle 3.33958e-014 4.37326e-014
lhumerus 89.2031 4.38652 38.984
lradius 67.4496
lwrist 88.5742
lhand -27.1872 16.2862
lfingers 7.12502
lthumb -0.600907 46.2651
rfemur -32.9205 30.2952 3.60448
rtibia 24.9926
rfoot -0.347372 0.330246
rtoes -9.28558
lfemur -9.46124 6.87444 -24.5981
ltibia 12.5286
lfoot -18.7859 32.6395
ltoes 11.2585
1148
root 0.537486 16.0222 -2.71781 0.497512 -38.8102 8.9934
lowerback 27.4866 0.024781 -8.23483
upperback 17.8606 -2.63268 -8.82284
thorax 5.07557 -1.79171 -4.62028
lowerneck 7.17402 -7.86139 -10.1404
upperneck 9.9891 -10.914 0.818652
head 2.66674 -5.70413 1.92383
rclavicle 4.13472e-014 8.26944e-014
rhumerus 67.6094 -22.2172 -6.69524
rradius 60.4042
rwrist -56.0858
rhand -27.4473 -0.750093
rfingers 7.12502
rthumb -0.852074 -30.7281
lclavicle 4.13472e-014 8.26944e-014
lhumerus 88.6703 4.37165 39.111
lradius 67.5282
lwrist 88.7238
lhand -27.7992 16.1096
lfingers 7.12502
lthumb -1.192 46.086
rfemur -32.6864 30.289 3.96689
rtibia 25.106
rfoot -0.326694 0.262413
rtoes -9.12705
lfemur -9.43357 6.79656 -24.3155
ltibia 12.8641
lfoot -18.7655 32.5426
ltoes 10.8225
1149
root 0.50401 16.0169 -2.74084 0.403316 -38.4834 8.84233
lowerback 27.4556 -0.0421173 -8.31285
upperback 17.9108 -2.72947 -9.1252
thorax 5.14443 -1.82835 -4.90446
lowerneck 7.30252 -7.56081 -10.9212
upperneck 10.0598 -10.5758 0.93172
head 2.70998 -5.56611 2.1057
rclavicle 8.26944e-014 1.27222e-013
rhumerus 68.379 -21.8871 -6.8752
rradius 59.9328
rwrist -55.8327
rhand -26.8944 -0.159887
rfingers 7.12502
rthumb -0.318049 -30.1394
lclavicle 8.26944e-014 1.27222e-013
lhumerus 88.0213 4.48286 39.0829
lradius 67.7235
lwrist 88.9919
lhand -28.2519 16.0922
lfingers 7.12502
lthumb -1.62917 46.0657
rfemur -32.4013 30.189 4.38011
rtibia 25.2483
rfoot -0.357058 0.165459
rtoes -8.8441
lfemur -9.44856 6.63937 -24.0198
ltibia 13.2992
lfoot -18.8902 32.4349
ltoes 10.1168
1150
root 0.469867 16.0108 -2.76954 0.49215 -38.0524 8.54846
lowerback 27.3549 -0.134554 -8.36761
upperback 17.9878 -2.8354 -9.33912
thorax 5.27815 -1.8735 -5.1037
lowerneck 7.34163 -7.32261 -11.5667
upperneck 10.0459 -10.2949 0.880818
head 2.72074 -5.45095 2.20795
rclavicle -6.99722e-014 -2.06736e-014
rhumerus 69.2073 -21.6268 -7.14085
rradius 59.6074
rwrist -55.5137
rhand -26.384 0.573535
rfingers 7.12502
rthumb 0.174867 -29.4061
lclavicle -6.99722e-014 -2.06736e-014
lhumerus 87.343 4.73034 39.2076
lradius 67.944
lwrist 89.3897
lhand -28.5574 16.0326
lfingers 7.12502
lthumb -1.9243 46.0037
rfemur -32.2332 30.0982 4.84546
rtibia 25.4126
rfoot -0.378341 -0.056049
rtoes -8.95545
lfemur -9.61353 6.59252 -23.6026
ltibia 13.7425
lfoot -18.9632 32.1366
ltoes 9.7819
1151
root 0.436369 16.0006 -2.80642 0.652417 -37.5301 8.37036
lowerback 27.2364 -0.206909 -8.6197
upperback 17.9856 -2.95148 -9.47238
thorax 5.34107 -1.94248 -5.09319
lowerneck 7.54142 -7.12772 -11.9838
upperneck 9.89234 -10.0675 0.572668
head 2.62476 -5.35243 2.19319
rclavicle -6.52014e-014 4.45278e-014
rhumerus 69.9982 -21.3121 -7.2887
rradius 59.5837
rwrist -55.5663
rhand -26.569 0.966493
rfingers 7.12502
rthumb -0.00384032 -29.0133
lclavicle -6.52014e-014 4.45278e-014
lhumerus 86.7263 4.91124 39.424
lradius 67.9975
lwrist 89.6401
lhand -28.9684 15.7104
lfingers 7.12502
lthumb -2.32118 45.6775
rfemur -32.2823 29.9472 5.11741
rtibia 25.5921
rfoot -0.393514 -0.370752
rtoes -9.02029
lfemur -9.99371 6.76759 -23.3032
ltibia 14.1858
lfoot -18.4103 31.6839
ltoes 9.25571
1152
root 0.402837 15.9938 -2.83745 0.775559 -37.1056 8.13589
lowerback 27.1964 -0.248085 -8.82263
upperback 17.9456 -3.0346 -9.60257
thorax 5.3197 -1.98991 -5.10844
lowerneck 7.88098 -6.9792 -12.0631
upperneck 9.65404 -9.89041 -0.0250282
head 2.43789 -5.26574 2.02948
rclavicle -7.15625e-014 -4.6118e-014
rhumerus 70.7216 -20.939 -7.27016
rradius 59.6964
rwrist -56.0003
rhand -27.0412 1.01321
rfingers 7.12502
rthumb -0.459855 -28.966
lclavicle -7.15625e-014 -4.6118e-014
lhumerus 86.2966 5.07964 39.423
lradius 67.9344
lwrist 89.9542
lhand -29.5447 15.3929
lfingers 7.12502
lthumb -2.87777 45.3532
rfemur -32.2541 29.7134 5.53482
rtibia 25.8024
rfoot -0.410941 -0.461205
rtoes -9.39365
lfemur -10.2166 6.87226 -22.9551
ltibia 14.5353
lfoot -17.9559 31.3438
ltoes 8.8366
1153
root 0.366931 15.9892 -2.86093 0.818941 -36.7521 7.98456
lowerback 27.0711 -0.239573 -9.03682
upperback 17.9253 -3.04566 -9.74591
thorax 5.3655 -2.00297 -5.15395
lowerneck 8.08093 -6.76328 -12.729
upperneck 9.69349 -9.66419 -0.118581
head 2.43927 -5.17888 2.1238
rclavicle -3.33958e-014 -1.52667e-013
rhumerus 71.3481 -20.6031 -7.29228
rradius 59.5665
rwrist -55.675
rhand -26.3487 1.137
rfingers 7.12502
rthumb 0.208991 -28.8426
lclavicle -3.33958e-014 -1.52667e-013
lhumerus 86.1689 5.32837 39.1763
lradius 67.7856
lwrist 90.5071
lhand -30.2242 15.2374
lfingers 7.12502
lthumb -3.534 45.1879
rfemur -32.1956 29.5778 5.85049
rtibia 26.0319
rfoot -0.494993 -0.546229
rtoes -9.07652
lfemur -10.3289 6.84185 -22.6832
ltibia 14.8043
lfoot -17.7746 31.1572
ltoes 8.59239
1154
root 0.33605 15.9822 -2.87927 0.631643 -36.2995 8.22478
lowerback 26.9982 -0.248609 -9.47502
upperback 17.897 -3.1321 -9.95504
thorax 5.39209 -2.0674 -5.13316
lowerneck 8.18175 -6.52227 -13.799
upperneck 9.81081 -9.42869 0.0385371
head 2.52518 -5.10253 2.36826
rclavicle 5.40694e-014 -3.18055e-014
rhumerus 72.0158 -20.2155 -7.35886
rradius 59.6128
rwrist -55.4109
rhand -25.9847 1.0986
rfingers 7.12502
rthumb 0.560552 -28.8804
lclavicle 5.40694e-014 -3.18055e-014
lhumerus 85.2577 5.10191 40.1195
lradius 67.5105
lwrist 90.0649
lhand -29.8433 15.1896
lfingers 7.12502
lthumb -3.16616 45.1458
rfemur -32.1016 29.3309 5.78294
rtibia 26.2072
rfoot -0.558265 -0.676108
rtoes -8.03256
lfemur -10.442 6.66146 -22.7934
ltibia 15.088
lfoot -17.8311 30.9905
ltoes 8.64445
1155
root 0.307918 15.9735 -2.89827 0.430092 -35.7673 8.2861
lowerback 27.1214 -0.290611 -9.74269
upperback 17.922 -3.25061 -10.1242
thorax 5.37996 -2.13572 -5.15274
lowerneck 8.11567 -6.33279 -14.7668
upperneck 9.92307 -9.22267 0.0745572
head 2.62573 -5.03923 2.54942
rclavicle -3.18055e-014 6.36111e-014
rhumerus 72.646 -19.9354 -7.4073
rradius 59.7173
rwrist -55.1463
rhand -25.5892 0.956537
rfingers 7.12502
rthumb 0.942497 -29.0211
lclavicle -3.18055e-014 6.36111e-014
lhumerus 84.2317 5.29962 40.2397
lradius 68.1034
lwrist 90.2123
lhand -30.1073 15.2498
lfingers 7.12502
lthumb -3.42103 45.2021
rfemur -31.8158 29.0717 5.95942
rtibia 26.3463
rfoot -0.621831 -0.85421
rtoes -7.37388
lfemur -10.4506 6.47998 -22.7444
ltibia 15.4063
lfoot -17.6208 30.7374
ltoes 8.46798
1156
root 0.27011 15.9694 -2.92257 0.545866 -35.3632 7.69762
lowerback 27.1572 -0.309376 -9.65586
upperback 18.0279 -3.24765 -10.1809
thorax 5.48421 -2.12522 -5.276
lowerneck 8.03785 -6.19589 -15.2741
upperneck 9.79062 -9.04669 -0.211368
head 2.59491 -4.96633 2.54359
rclavicle 3.81667e-014 -3.65764e-014
rhumerus 73.2866 -19.7724 -7.56039
rradius 59.792
rwrist -54.8981
rhand -25.0882 0.858259
rfingers 7.12502
rthumb 1.42638 -29.1167
lclavicle 3.81667e-014 -3.65764e-014
lhumerus 83.4924 5.66037 40.1728
lradius 68.582
lwrist 90.4891
lhand -30.4042 15.3368
lfingers 7.12502
lthumb -3.70778 45.2843
rfemur -31.4352 29.0522 6.78985
rtibia 26.4427
rfoot -0.6793 -1.12913
rtoes -7.51725
lfemur -10.4544 6.49858 -22.0495
ltibia 15.7989
lfoot -17.2831 30.4072
ltoes 8.05865
1157
root 0.230824 15.9669 -2.94734 0.768368 -34.9588 7.15422
lowerback 27.1037 -0.367216 -9.54432
upperback 18.0585 -3.28096 -10.3068
thorax 5.53047 -2.12299 -5.47893
lowerneck 8.3219 -6.06454 -15.4197
upperneck 9.23008 -8.92341 -0.801476
head 2.31504 -4.88492 2.39101
rclavicle -5.40694e-014 -5.56597e-014
rhumerus 73.9161 -19.481 -7.74796
rradius 59.8689
rwrist -54.8397
rhand -25.0848 1.06598
rfingers 7.12502
rthumb 1.42968 -28.909
lclavicle -5.40694e-014 -5.56597e-014
lhumerus 82.9279 5.8558 40.3435
lradius 68.6766
lwrist 90.6555
lhand -30.2991 15.6843
lfingers 7.12502
lthumb -3.60628 45.6335
rfemur -31.2186 29.0277 7.48924
rtibia 26.4871
rfoot -0.65908 -1.39546
rtoes -7.87165
lfemur -10.7121 6.56573 -21.4003
ltibia 16.3632
lfoot -17.0025 30.0745
ltoes 7.58379
